<?xml version='1.0' encoding='UTF-8' standalone='no'?>
<svg xmlns="http://www.w3.org/2000/svg" xmlns:xlink="http://www.w3.org/1999/xlink" viewBox="171.74 311.79 656.52 376.54" version="1.2">
<g id="surface1">
<path style=" stroke:none;fill-rule:nonzero;fill:rgb(22.399902%,54.899597%,21.199036%);fill-opacity:1;" d="M 223.691406 418.964844 L 223.691406 450.457031 L 277.402344 450.457031 L 277.402344 491.960938 L 223.691406 491.960938 L 223.691406 562.519531 L 178.402344 562.519531 L 178.402344 377.460938 L 279.351562 377.460938 L 279.351562 418.964844 Z M 223.691406 418.964844 "/>
<path style=" stroke:none;fill-rule:nonzero;fill:rgb(22.399902%,54.899597%,21.199036%);fill-opacity:1;" d="M 583.746094 460.714844 C 573.082031 461.039062 565.351562 462.664062 560.550781 465.597656 C 554.203125 469.5 551.03125 476.378906 551.03125 486.226562 L 551.03125 562.519531 L 509.527344 562.519531 L 509.527344 423.726562 L 548.46875 423.726562 L 548.46875 438.496094 L 549.078125 438.496094 C 555.667969 425.476562 567.222656 418.964844 583.746094 418.964844 Z M 583.746094 460.714844 "/>
<path style=" stroke:none;fill-rule:nonzero;fill:rgb(22.399902%,54.899597%,21.199036%);fill-opacity:1;" d="M 779.828125 562.519531 L 779.828125 488.789062 C 779.828125 479.265625 778.6875 472.230469 776.410156 467.671875 C 773.15625 461.242188 767.214844 458.027344 758.589844 458.027344 C 750.042969 458.027344 743.898438 460.835938 740.15625 466.449219 C 737.0625 471.089844 735.515625 477.84375 735.515625 486.714844 L 735.515625 562.519531 L 694.015625 562.519531 L 694.015625 487.082031 C 694.015625 478.457031 692.75 471.820312 690.230469 467.183594 C 686.890625 461.078125 681.234375 458.027344 673.261719 458.027344 C 664.472656 458.027344 658.164062 461.121094 654.339844 467.304688 C 651.328125 472.1875 649.824219 479.347656 649.824219 488.789062 L 649.824219 562.519531 L 608.320312 562.519531 L 608.320312 423.726562 L 647.015625 423.726562 L 647.015625 438.496094 L 647.628906 438.496094 C 651.367188 431.742188 656.738281 426.738281 663.738281 423.480469 C 670.007812 420.472656 677.371094 418.964844 685.835938 418.964844 C 703.574219 418.964844 716.921875 427.226562 725.875 443.746094 C 736.289062 427.226562 750.9375 418.964844 769.820312 418.964844 C 785.035156 418.964844 797.203125 423.644531 806.316406 433.003906 C 813.316406 440.164062 817.792969 448.464844 819.746094 457.90625 C 820.476562 461.8125 820.96875 466.410156 821.210938 471.699219 C 821.292969 473.734375 821.332031 476.175781 821.332031 479.023438 L 821.332031 562.519531 Z M 779.828125 562.519531 "/>
<path style=" stroke:none;fill-rule:nonzero;fill:rgb(43.099976%,75.698853%,24.299622%);fill-opacity:1;" d="M 510.546875 681.824219 L 510.546875 662.304688 C 513.789062 660.1875 516.492188 658.390625 518.652344 656.921875 C 521.507812 654.976562 524.078125 653.117188 526.371094 651.34375 C 531.816406 647.148438 536.554688 642.828125 540.574219 638.375 C 542.21875 636.601562 543.730469 634.828125 545.113281 633.054688 C 546.800781 630.894531 548.269531 628.796875 549.523438 626.765625 C 552.59375 621.707031 554.128906 617.210938 554.128906 613.273438 C 554.128906 606.917969 551.035156 603.742188 544.855469 603.742188 C 540.789062 603.742188 537.828125 605.40625 535.96875 608.734375 C 534.585938 611.199219 533.785156 614.703125 533.570312 619.242188 L 509.640625 619.242188 C 509.769531 614.484375 510.199219 610.574219 510.9375 607.503906 C 511.800781 603.609375 513.3125 600.003906 515.476562 596.671875 C 518.675781 591.742188 523.0625 587.960938 528.640625 585.324219 C 533.828125 582.902344 539.535156 581.691406 545.761719 581.691406 C 552.507812 581.691406 558.539062 583.074219 563.855469 585.84375 C 569.691406 588.867188 573.972656 593.234375 576.695312 598.941406 C 578.382812 602.746094 579.226562 606.507812 579.226562 610.226562 C 579.226562 615.285156 578.210938 620.300781 576.179688 625.273438 C 574.40625 629.683594 571.8125 634.136719 568.398438 638.632812 C 565.585938 642.351562 562.082031 646.261719 557.890625 650.371094 C 556.203125 652.015625 554.300781 653.789062 552.183594 655.6875 C 550.710938 657.074219 548.832031 658.738281 546.539062 660.683594 L 579.875 660.683594 L 579.875 681.824219 Z M 510.546875 681.824219 "/>
<path style=" stroke:none;fill-rule:nonzero;fill:rgb(43.099976%,75.698853%,24.299622%);fill-opacity:1;" d="M 653.25 681.824219 L 627.375 681.824219 L 594.558594 583.507812 L 620.304688 583.507812 L 640.085938 652.445312 L 640.410156 652.445312 L 660.320312 583.507812 L 686.195312 583.507812 Z M 653.25 681.824219 "/>
<path style=" stroke:none;fill-rule:nonzero;fill:rgb(43.099976%,75.698853%,24.299622%);fill-opacity:1;" d="M 743.617188 636.816406 C 741.804688 628.386719 736.222656 624.171875 726.886719 624.171875 C 717.546875 624.171875 711.96875 628.386719 710.152344 636.816406 Z M 765.148438 651.667969 L 709.894531 651.667969 C 711.277344 660.964844 717.027344 665.613281 727.144531 665.613281 C 732.421875 665.613281 736.894531 663.320312 740.570312 658.738281 L 763.140625 658.738281 C 759.851562 666.390625 755.140625 672.488281 749 677.027344 C 742.472656 681.824219 735.1875 684.222656 727.144531 684.222656 C 716.378906 684.222656 707.191406 680.398438 699.582031 672.746094 C 691.929688 665.136719 688.101562 655.949219 688.101562 645.183594 C 688.101562 634.375 691.84375 625.101562 699.324219 617.359375 C 706.890625 609.492188 716.03125 605.558594 726.757812 605.558594 C 737.910156 605.558594 747.226562 609.492188 754.707031 617.359375 C 762.015625 625.101562 765.667969 634.589844 765.667969 645.832031 C 765.667969 647.949219 765.496094 649.894531 765.148438 651.667969 "/>
<path style=" stroke:none;fill-rule:nonzero;fill:rgb(43.099976%,75.698853%,24.299622%);fill-opacity:1;" d="M 810.960938 624.820312 L 810.960938 681.824219 L 788.910156 681.824219 L 788.910156 624.820312 L 778.015625 624.820312 L 778.015625 608.085938 L 788.910156 608.085938 L 788.910156 583.507812 L 810.960938 583.507812 L 810.960938 608.085938 L 821.597656 608.085938 L 821.597656 624.820312 Z M 810.960938 624.820312 "/>
<path style=" stroke:none;fill-rule:evenodd;fill:rgb(22.399902%,54.899597%,21.199036%);fill-opacity:1;" d="M 694.890625 392.828125 C 707.054688 426.210938 756.539062 418.40625 765.367188 394.820312 C 762.632812 395.875 760.085938 396.429688 757.726562 396.480469 C 772.320312 392.761719 770.21875 381.480469 765.019531 369.558594 C 763.410156 363.433594 763.5 359.210938 765.289062 356.890625 C 764.390625 357.113281 763.414062 357.4375 762.351562 357.859375 C 766.15625 355.058594 769.847656 354.453125 774.40625 355.957031 C 774.789062 352.335938 772.15625 350.011719 768.851562 349.328125 C 769.539062 349.210938 770.230469 349.148438 770.9375 349.269531 C 771.6875 345.527344 771.351562 343.453125 770.007812 342.617188 C 768.78125 342.003906 767.742188 342.585938 766.890625 344.367188 C 767.578125 340.460938 766.136719 338.445312 763.796875 339.429688 C 762.371094 340.421875 762.148438 341.808594 762.652344 343.382812 C 761.875 342.773438 761.605469 341.8125 761.84375 340.5 C 759.761719 338.015625 758.304688 341.566406 758.785156 343.785156 C 758.277344 343.300781 758.042969 342.664062 758.078125 341.875 C 755.941406 342.144531 755.597656 343.523438 757.050781 346.019531 C 752.261719 346.847656 745.4375 353.117188 739.996094 363.703125 C 741.417969 362.8125 743.171875 361.394531 745.214844 359.222656 C 740.265625 370.683594 726.574219 368.589844 716.757812 366.195312 C 716.613281 368.101562 715.890625 371.171875 715.167969 372.964844 C 714.351562 359.515625 712.570312 342.65625 694.753906 343.914062 C 688.605469 344.859375 683.542969 349.203125 679.566406 356.9375 C 676.933594 362.347656 684.421875 360.476562 689.757812 359.074219 C 683.140625 363.160156 679.628906 364.617188 678.488281 366.574219 C 675.363281 372.460938 686.535156 372.203125 690.871094 368.730469 C 675.515625 382.65625 687.847656 391.710938 703.191406 392.636719 C 701.347656 393.089844 698.582031 393.152344 694.890625 392.828125 "/>
<path style=" stroke:none;fill-rule:nonzero;fill:rgb(22.399902%,54.899597%,21.199036%);fill-opacity:1;" d="M 349.335938 493.339844 C 348.9375 493.355469 348.648438 494.195312 348.691406 495.210938 C 348.730469 496.230469 349.085938 497.042969 349.488281 497.027344 C 349.882812 497.011719 350.171875 496.171875 350.132812 495.152344 C 350.089844 494.136719 349.734375 493.324219 349.335938 493.339844 "/>
<path style=" stroke:none;fill-rule:nonzero;fill:rgb(22.399902%,54.899597%,21.199036%);fill-opacity:1;" d="M 352.636719 492.945312 C 352.183594 492.964844 351.855469 493.921875 351.902344 495.082031 C 351.949219 496.242188 352.355469 497.167969 352.808594 497.148438 C 353.261719 497.128906 353.589844 496.175781 353.542969 495.015625 C 353.496094 493.855469 353.089844 492.929688 352.636719 492.945312 "/>
<path style=" stroke:none;fill-rule:nonzero;fill:rgb(22.399902%,54.899597%,21.199036%);fill-opacity:1;" d="M 379.238281 479.066406 C 378.363281 479.066406 377.65625 479.773438 377.65625 480.644531 C 377.65625 481.515625 378.363281 482.222656 379.238281 482.222656 C 380.109375 482.222656 380.816406 481.515625 380.816406 480.644531 C 380.816406 479.773438 380.109375 479.066406 379.238281 479.066406 "/>
<path style=" stroke:none;fill-rule:nonzero;fill:rgb(22.399902%,54.899597%,21.199036%);fill-opacity:1;" d="M 391.597656 536.476562 C 391.660156 536.109375 391.730469 535.726562 391.8125 535.335938 C 394.417969 522.914062 389.917969 512.042969 377.316406 511.394531 C 359.605469 510.488281 356.511719 504.417969 356.511719 504.417969 C 361.621094 505.160156 366.511719 500.929688 366.511719 500.929688 C 360.449219 503.4375 348.601562 504.351562 347.703125 497.578125 C 346.804688 490.804688 348.347656 486.796875 351.175781 487.300781 C 354 487.800781 356.273438 494.644531 356.273438 494.644531 C 356.789062 491.734375 353.71875 487.433594 353.71875 487.433594 C 362.816406 486.65625 364.398438 484.757812 368.824219 477.183594 C 373.25 469.609375 383.261719 466.957031 383.261719 466.957031 C 380.410156 466.195312 374.9375 469.082031 374.9375 469.082031 C 374.066406 467.828125 373.238281 462.429688 374.042969 459.589844 C 374.847656 456.75 373.492188 453.003906 373.492188 453.003906 C 374.421875 452.871094 384.414062 457.542969 385.324219 464.855469 C 386.234375 472.167969 387.914062 472.3125 387.914062 472.3125 C 384.054688 454.761719 396.769531 449.382812 396.769531 449.382812 C 396.769531 449.382812 396.71875 453.722656 401.726562 459.832031 C 409.226562 468.988281 403.273438 477.660156 403.273438 477.660156 C 406.246094 476.347656 407.316406 470.472656 407.316406 470.472656 C 423.523438 479.148438 430.339844 490.035156 432.921875 499.4375 C 428.183594 518.921875 411.824219 533.847656 391.597656 536.476562 M 440.824219 423.726562 L 440.824219 438.496094 L 440.335938 438.496094 C 436.429688 431.984375 430.570312 427.019531 422.757812 423.601562 C 415.757812 420.511719 408.109375 418.964844 399.808594 418.964844 C 379.382812 418.964844 362.535156 426.25 349.273438 440.816406 C 336.496094 454.894531 330.109375 472.308594 330.109375 493.0625 C 330.109375 514.140625 336.371094 531.679688 348.90625 545.675781 C 361.925781 560.078125 378.894531 567.28125 399.808594 567.28125 C 408.191406 567.28125 415.882812 565.773438 422.882812 562.765625 C 431.019531 559.265625 436.835938 554.179688 440.335938 547.503906 L 440.824219 547.503906 L 440.824219 562.519531 L 482.328125 562.519531 L 482.328125 423.726562 Z M 440.824219 423.726562 "/>
<path style=" stroke:none;fill-rule:nonzero;fill:rgb(22.399902%,54.899597%,21.199036%);fill-opacity:1;" d="M 461.144531 346.9375 L 397.269531 336.921875 L 398.957031 333.054688 L 471.828125 345.660156 Z M 449.984375 360.742188 C 446.625 360.957031 443.726562 358.410156 443.511719 355.054688 C 443.296875 351.699219 445.847656 348.804688 449.203125 348.585938 C 452.5625 348.371094 455.457031 350.917969 455.675781 354.277344 C 455.890625 357.632812 453.34375 360.527344 449.984375 360.742188 M 387.902344 365.5625 C 386.777344 353.152344 395.65625 342.820312 395.65625 342.820312 L 398.449219 345.832031 C 391.160156 353.945312 392.519531 364.5 392.519531 364.5 C 393.976562 367.324219 405.742188 368.941406 405.742188 368.941406 C 393.777344 369.246094 387.902344 365.5625 387.902344 365.5625 M 369.320312 339.121094 C 367.261719 341.667969 370.523438 353.5625 370.523438 353.5625 C 365.378906 342.273438 366.734375 335.09375 366.734375 335.09375 C 374.636719 331.285156 391.097656 332.164062 391.097656 332.164062 L 389.292969 336.328125 C 372.265625 337.128906 369.320312 339.121094 369.320312 339.121094 M 355.527344 366.722656 C 344.792969 361.429688 340.792969 354.527344 340.792969 354.527344 C 346.722656 342.820312 358.746094 338.90625 358.746094 338.90625 L 359.820312 342.875 C 349.589844 346.664062 345.289062 355.839844 345.289062 355.839844 C 345.261719 359.015625 355.527344 366.722656 355.527344 366.722656 M 323.964844 382.800781 C 327.710938 367.8125 336.546875 360 336.546875 360 L 339.074219 363.296875 C 330.53125 370.757812 329.019531 382.914062 329.019531 382.914062 C 329.894531 385.964844 341.835938 390.164062 341.835938 390.164062 C 330.042969 388.132812 323.964844 382.800781 323.964844 382.800781 M 559.121094 315.777344 C 558.976562 315.785156 558.734375 316.984375 558.761719 317.4375 C 558.921875 319.921875 559.359375 322.9375 559.269531 325.34375 C 558.835938 337.148438 549.542969 353.140625 541.019531 361.082031 C 522.125 378.675781 498.949219 378.285156 475.867188 369.773438 L 470.417969 367.246094 C 477.28125 368.238281 484.078125 369.949219 491.019531 370.511719 C 506.390625 371.761719 522.113281 369.191406 533.335938 357.835938 C 540.578125 350.511719 545.605469 338.003906 540.535156 328.175781 C 536.148438 319.667969 523.976562 319.152344 519.726562 327.875 L 524.335938 324.464844 C 530 321.359375 536.121094 324.664062 538.085938 330.464844 C 541.992188 342.003906 531.535156 354.917969 521.894531 360.066406 C 508.628906 367.152344 493.203125 365.425781 478.992188 362.71875 C 489.042969 361.066406 497.960938 357.3125 507.367188 353.871094 C 508.039062 353.625 509.835938 352.773438 509.835938 352.773438 C 509.835938 352.773438 508.0625 352.394531 507.863281 352.371094 C 498.421875 351.152344 488.96875 349.992188 479.515625 348.902344 L 496.546875 344.796875 C 498.851562 344.125 504.03125 342.386719 504.703125 342.105469 C 480.988281 340.800781 457.160156 335.910156 433.84375 331.71875 C 409.421875 327.328125 386.425781 319.0625 361.886719 328.199219 C 356.140625 330.335938 351.226562 333.035156 347.09375 336.152344 L 347.089844 336.148438 C 347.082031 336.15625 347.070312 336.164062 347.0625 336.171875 C 344.328125 338.238281 341.953125 340.492188 339.898438 342.890625 C 293.019531 391.453125 305.304688 477.84375 305.304688 477.84375 C 319.5 407.980469 355.902344 392.609375 373.304688 389.464844 C 374.082031 389.332031 374.863281 389.210938 375.660156 389.113281 C 374.660156 387.28125 374.589844 386.324219 377.984375 386.207031 C 385.105469 385.964844 389.457031 391.175781 394.113281 395.824219 C 394.410156 396.121094 394.636719 396.4375 395.210938 396.347656 C 395.585938 384.878906 384.546875 378.023438 373.992188 378.558594 C 375.679688 374.753906 375.71875 374.3125 379.832031 375.164062 C 391.519531 377.582031 393.09375 384.664062 398.882812 392.691406 C 398.972656 392.8125 400.320312 394.410156 401.140625 394.101562 C 401.074219 386.296875 398.679688 377.941406 392.320312 372.945312 L 385.519531 368.953125 C 392.316406 368.839844 398.386719 374.648438 401.886719 380.035156 C 403.078125 381.871094 406.484375 388.574219 406.847656 389.023438 C 407.332031 389.628906 407.8125 389.964844 407.859375 389.703125 C 408.292969 387.144531 408.15625 382.945312 407.730469 380.375 C 407.1875 377.101562 405.261719 373.988281 403.871094 371.042969 C 404.03125 370.863281 406.761719 371.816406 407.160156 372.039062 C 409.886719 373.5625 415.617188 381.46875 418.277344 384.351562 C 420.191406 386.417969 427.992188 393.183594 428.667969 395.011719 C 429.238281 396.5625 429.085938 398.648438 428.554688 400.820312 C 427.617188 404.65625 427.261719 412.53125 427.261719 412.53125 C 427.261719 412.5625 427.292969 412.582031 427.3125 412.558594 C 427.898438 411.882812 431.230469 408.09375 431.433594 407.792969 C 433.789062 404.316406 436.835938 399.25 436.238281 394.898438 C 435.585938 390.175781 429.640625 385.773438 426.5625 382.417969 L 422.226562 376.867188 C 424.28125 377.84375 426.027344 379.652344 427.890625 380.90625 C 431.351562 383.234375 442.789062 389.3125 444.644531 391.800781 C 445.953125 393.5625 451.082031 408.089844 451.222656 410.273438 L 451.65625 417.019531 C 458.105469 410.1875 456.296875 399.90625 452.75 392.066406 C 449.097656 383.996094 439.351562 380.699219 433.09375 375.242188 C 433.878906 375.039062 434.46875 375.402344 435.160156 375.632812 C 439.09375 376.945312 453.976562 381.949219 456.503906 383.804688 C 459.382812 385.921875 462.945312 390.519531 465.019531 392.585938 L 473.171875 403.027344 C 474.472656 391.902344 467.324219 381.839844 457.90625 376.71875 L 444.050781 371.269531 C 447.542969 372.09375 454.226562 368.050781 456.992188 368.351562 C 458.527344 368.515625 461.511719 370.660156 463.09375 371.324219 C 470.351562 374.363281 477.890625 377.363281 485.636719 378.878906 C 486.589844 379.15625 490.050781 380.308594 492.652344 380.628906 C 514.886719 383.371094 533.660156 377.671875 547.75 360.417969 C 557.304688 348.714844 563.246094 330.707031 559.121094 315.777344 "/>
<path style=" stroke:none;fill-rule:nonzero;fill:rgb(100%,100%,100%);fill-opacity:1;" d="M 322.515625 386.871094 C 322.515625 386.871094 318.59375 396.433594 317.5625 405.769531 C 317.5625 405.769531 319.378906 395.386719 325.539062 388.847656 Z M 322.515625 386.871094 "/>
</g>
</svg>