<?xml version='1.0' encoding='UTF-8' standalone='no'?>
<svg xmlns="http://www.w3.org/2000/svg" xmlns:xlink="http://www.w3.org/1999/xlink" viewBox="182.96 177.15 634.08 645.82" version="1.2">
<g id="surface1">
<path style=" stroke:none;fill-rule:nonzero;fill:rgb(43.099976%,75.698853%,24.299622%);fill-opacity:1;" d="M 624.375 233.28125 C 623.488281 231.15625 620.183594 222.535156 613.664062 219.566406 C 605.375 215.796875 598.078125 214.898438 591.082031 220.761719 C 579.277344 230.65625 573.382812 252.921875 574.535156 269.746094 C 574.96875 276.082031 577.230469 282.410156 577.742188 288.699219 C 538.722656 277.484375 497.269531 273.402344 456.804688 278.542969 C 441.792969 280.453125 427.324219 284.886719 412.53125 287.769531 C 388.066406 274.035156 360.816406 262.523438 342.746094 240.238281 C 381.855469 209.453125 430.488281 191.109375 479.992188 185.382812 C 525.535156 180.117188 578.125 185.910156 620.679688 203.285156 C 623.394531 204.394531 632.09375 208.578125 632.09375 208.578125 C 632.09375 208.578125 626.375 228.246094 624.375 233.28125 "/>
<path style=" stroke:none;fill-rule:nonzero;fill:rgb(43.099976%,75.698853%,24.299622%);fill-opacity:1;" d="M 794.042969 593.195312 C 793.03125 595.664062 788.773438 604.972656 788.773438 604.972656 L 785.070312 612.800781 C 785.347656 579.179688 777.988281 543.121094 762.136719 513.382812 C 755.359375 500.667969 745.746094 489.128906 738.554688 476.941406 C 737.6875 475.472656 734.0625 468.8125 734.0625 468.8125 C 734.0625 468.8125 735.566406 468.902344 736.582031 468.773438 C 739.105469 468.449219 742.191406 468.222656 744.640625 467.578125 C 777.246094 458.972656 783.074219 422.40625 770.964844 394.664062 C 769.808594 392.011719 761.972656 377.339844 761.972656 377.339844 L 787.738281 373.71875 C 795.109375 388.386719 799.714844 404.519531 803.261719 420.542969 C 814.582031 471.699219 812.960938 521.839844 799.570312 572.371094 C 798.378906 576.859375 795.273438 590.214844 794.042969 593.195312 "/>
<path style=" stroke:none;fill-rule:nonzero;fill:rgb(22.399902%,54.899597%,21.199036%);fill-opacity:1;" d="M 708.351562 335.863281 C 708.351562 342.53125 702.949219 347.933594 696.285156 347.933594 C 689.617188 347.933594 684.210938 342.53125 684.210938 335.863281 C 684.210938 329.199219 689.617188 323.792969 696.285156 323.792969 C 702.949219 323.792969 708.351562 329.199219 708.351562 335.863281 "/>
<path style=" stroke:none;fill-rule:nonzero;fill:rgb(22.399902%,54.899597%,21.199036%);fill-opacity:1;" d="M 441.550781 355.644531 C 441.507812 356.765625 441.089844 357.625 440.636719 358.863281 C 439.90625 345.71875 436.367188 334.039062 429.550781 322.863281 C 478.128906 310.191406 530.039062 312.554688 577.289062 329.328125 C 575.976562 329.726562 574.398438 329.808594 573.425781 329.65625 C 528.621094 322.550781 484.601562 322.023438 440.714844 334.9375 C 441.269531 341.851562 441.828125 348.664062 441.550781 355.644531 M 424.929688 380.105469 L 419.835938 361.652344 C 417.265625 356.457031 414.621094 350.054688 411.078125 345.476562 C 394.539062 324.105469 364.371094 318.09375 350.132812 294.238281 C 350.910156 293.503906 362.890625 302.238281 364.679688 303.226562 C 378.121094 310.636719 392.585938 314.949219 404.179688 325.601562 C 413.386719 334.058594 424.929688 353.746094 424.929688 366.714844 Z M 340.253906 420.332031 C 333.585938 420.332031 328.179688 414.929688 328.179688 408.265625 C 328.179688 401.605469 333.585938 396.203125 340.253906 396.203125 C 346.917969 396.203125 352.324219 401.605469 352.324219 408.265625 C 352.324219 414.929688 346.917969 420.332031 340.253906 420.332031 M 248.761719 441.71875 C 243.558594 442.871094 235.546875 445.574219 233.785156 439.214844 C 243.144531 438.507812 252.785156 434.535156 260.828125 429.773438 C 292.363281 411.09375 295.078125 369.40625 329.179688 349.457031 C 330.152344 348.886719 334.757812 346.425781 335.347656 346.863281 C 336.914062 350.03125 339.863281 356.734375 339.863281 356.734375 C 339.863281 356.734375 331.507812 362.902344 329.59375 364.4375 C 298.042969 389.792969 292.28125 432.078125 248.761719 441.71875 M 225.460938 477.0625 C 223.015625 478.824219 220.378906 470.40625 220.15625 468.992188 C 218.246094 456.90625 224.015625 451.9375 225.980469 465.933594 C 226.53125 469.847656 226.828125 473.257812 225.460938 477.0625 M 206.996094 475.21875 C 202.046875 479.332031 200.257812 458.875 204.695312 456.769531 C 209.382812 458.058594 208.136719 474.269531 206.996094 475.21875 M 701.917969 423.007812 L 703.792969 415.199219 C 704.539062 427.40625 706.167969 438.628906 716.289062 446.570312 C 732.234375 459.082031 752.015625 450.054688 758.894531 436.632812 C 761.230469 432.078125 762.039062 422.773438 761.960938 421.210938 C 761.683594 415.566406 759.035156 407.710938 756.609375 402.558594 C 751.082031 390.816406 734.242188 375.457031 752.800781 364.929688 C 755.113281 363.617188 766.828125 359.789062 768.902344 359.789062 L 792.449219 359.789062 C 787.988281 341.125 771.675781 325.652344 753.664062 320.074219 C 767.6875 285.820312 746.796875 243.988281 709.34375 238.828125 C 712.042969 246.6875 711.902344 257.035156 704.253906 261.871094 L 698.492188 250.898438 C 695.621094 245.421875 691.742188 240.519531 687.003906 236.546875 C 678.707031 229.582031 669.136719 224.933594 657.816406 222.476562 C 655.746094 222.027344 646.386719 220.257812 645.246094 220.511719 C 641.234375 221.40625 639.898438 236.945312 640.972656 242.09375 C 642.21875 248.054688 644.878906 251.734375 646.546875 257.285156 C 634.949219 258.003906 620.730469 251.890625 612.824219 243.460938 C 610.953125 241.464844 605.050781 231.160156 603.667969 231.472656 C 601.886719 231.871094 596.90625 239.304688 595.914062 241.28125 C 587.320312 258.390625 588.445312 283.964844 603.140625 297.46875 C 609.789062 303.582031 618.324219 307.1875 626.214844 311.3125 C 596.769531 335.074219 580.214844 370.722656 570.167969 406.6875 C 559.789062 443.839844 556.394531 484.4375 530.671875 514.933594 C 523.769531 523.117188 514.964844 530.742188 507.125 538.011719 L 518.675781 519.5625 C 551.117188 459.328125 545.617188 387.34375 586.214844 330.484375 C 587.691406 328.410156 594.128906 319.332031 595.308594 318.226562 C 596.375 317.230469 598.574219 313.003906 598.449219 312.824219 C 596.925781 310.566406 564.699219 301.347656 559.757812 300.21875 C 509.972656 288.875 459.507812 289.296875 410.769531 305.082031 C 387.183594 290.519531 363.335938 281.636719 342.699219 262.398438 C 341.25 261.050781 340.648438 257.355469 338.140625 259.769531 C 332.953125 280.820312 327.0625 301.863281 327.039062 323.777344 C 301.742188 306.898438 270.292969 301.851562 240.25 301.621094 C 242.570312 307.222656 246.117188 312.335938 248.339844 317.992188 C 254.515625 333.726562 255.734375 354.179688 268.046875 366.617188 C 269.832031 368.421875 277.636719 373.277344 277.945312 373.804688 C 279.109375 375.777344 271.585938 389.984375 269.953125 392.730469 C 259.667969 410.023438 245.929688 420.195312 225.824219 423.398438 C 209.347656 426.023438 199.070312 422.253906 192.210938 441.496094 C 187.839844 453.769531 188.667969 474.460938 191.96875 487.019531 C 198.429688 511.578125 216.492188 511.980469 235.804688 521.675781 C 259.800781 533.714844 275.800781 546.8125 303.042969 555.089844 C 333.582031 564.371094 364.09375 561.675781 386.621094 587.867188 C 392.132812 594.273438 394.757812 600.75 398.738281 608.066406 C 443.328125 603.503906 487.34375 592.789062 530.589844 581.339844 C 541.574219 578.429688 552.746094 575.566406 563.4375 571.710938 C 543.019531 568.300781 522.277344 566.582031 501.578125 568.027344 C 521.6875 555.625 539.25 541.921875 553.296875 522.746094 C 591.96875 469.949219 582.316406 394.617188 624.394531 342.949219 C 644.8125 317.871094 687.1875 295.917969 717.9375 315.644531 C 724.804688 320.054688 726.285156 325.523438 731.535156 329.746094 C 735.296875 332.769531 748.679688 336.597656 754.605469 339.921875 C 758.335938 342.007812 762.636719 344.769531 765.671875 347.785156 L 750.433594 347.785156 C 740.890625 347.785156 698.175781 366.964844 688.539062 372.691406 C 664.894531 386.734375 646.902344 415.410156 640.347656 441.777344 C 630.574219 481.101562 637.636719 529 602.710938 557.425781 L 594.84375 563.855469 C 598.863281 565.148438 601.726562 562.652344 604.609375 562.09375 C 648.257812 553.628906 692.757812 556.199219 728.265625 584.113281 C 747.714844 599.402344 763.699219 623.511719 764.757812 648.820312 C 764.9375 649.082031 765.933594 648.339844 766.148438 647.910156 C 767.3125 645.523438 769.023438 631.597656 769.351562 628.03125 C 772.929688 589.109375 764.933594 552.984375 746.4375 518.921875 C 730.382812 489.355469 699.910156 458.550781 701.917969 423.007812 "/>
<path style=" stroke:none;fill-rule:nonzero;fill:rgb(22.399902%,54.899597%,21.199036%);fill-opacity:1;" d="M 694.40625 689.230469 C 694.40625 689.230469 717.265625 694.808594 722 690.664062 C 722 690.664062 732.191406 672.203125 724.65625 651.953125 L 732 648.433594 C 732 648.433594 740.84375 673.9375 729.738281 695.988281 C 729.738281 695.988281 716.230469 698.496094 694.40625 689.230469 M 699.554688 733.269531 C 714.113281 716.464844 715.261719 708.957031 715.261719 708.957031 L 722.128906 709.347656 C 718.144531 719.457031 699.554688 733.269531 699.554688 733.269531 M 691.050781 599.878906 C 691.050781 599.878906 716.734375 608.195312 727.636719 630.34375 C 727.636719 630.34375 721.496094 642.636719 700.945312 654.464844 C 700.945312 654.464844 719.175781 639.585938 718.722656 633.3125 C 718.722656 633.3125 710.136719 614.054688 689.433594 607.859375 Z M 669.625 630.34375 C 669.625 630.34375 674.5625 606.421875 670.175781 601.644531 C 670.175781 601.644531 664.097656 598.078125 630.332031 598.652344 L 626.238281 590.648438 C 626.238281 590.648438 658.671875 586.828125 674.777344 593.351562 C 674.777344 593.351562 678.363281 607.375 669.625 630.34375 M 626.238281 718.070312 C 627.394531 718.171875 627.796875 717.519531 628.347656 716.894531 C 636.96875 707.117188 644.90625 696.257812 659.019531 695.835938 C 667.261719 695.585938 665.386719 698.484375 662.589844 704.105469 C 655.324219 718.699219 637.785156 727.730469 630.6875 742.859375 C 610.1875 739.9375 588.816406 738.375 569.042969 745.765625 C 566.269531 739.8125 558.039062 726.015625 559.925781 719.671875 C 561.03125 715.964844 575.597656 701.609375 579.117188 697.277344 C 584.015625 691.246094 594.335938 674.878906 599.535156 671.523438 C 600.296875 671.03125 605.574219 668.804688 605.914062 669.140625 C 603.539062 675.136719 600.121094 681.535156 599.464844 688.074219 C 598.949219 693.210938 599.214844 701.535156 600.398438 706.539062 C 600.519531 707.050781 601.425781 706.324219 602.308594 705.066406 C 602.96875 704.125 608.851562 690.449219 610.980469 686.664062 C 617.214844 675.574219 628.476562 663.320312 641.929688 662.679688 L 628.992188 671.433594 C 617.050781 682.117188 613.378906 698.945312 614.234375 714.378906 C 615.898438 714.882812 618.359375 711.558594 618.519531 711.304688 C 628.949219 694.699219 631.160156 680.5 653.957031 674.238281 C 661.988281 672.03125 662.117188 672.898438 665.941406 680.207031 C 645.003906 680.484375 624.050781 695.441406 626.238281 718.070312 M 491.65625 628.289062 C 491.425781 628.382812 491.183594 628.457031 490.917969 628.507812 C 490.765625 628.535156 490.621094 628.539062 490.472656 628.554688 L 489.621094 628.742188 L 468.335938 627.574219 L 610.808594 593.410156 L 611.953125 595.625 C 612.972656 597.175781 614.132812 599.179688 614.3125 600.210938 L 614.636719 600.835938 Z M 513.4375 654.621094 C 506.769531 654.621094 501.367188 649.21875 501.367188 642.554688 C 501.367188 635.894531 506.769531 630.492188 513.4375 630.492188 C 520.105469 630.492188 525.511719 635.894531 525.511719 642.554688 C 525.511719 649.21875 520.105469 654.621094 513.4375 654.621094 M 683.480469 579.105469 C 633.808594 564.15625 589.394531 583.414062 541.671875 595.191406 C 496.097656 606.4375 449.613281 619.128906 402.894531 624.714844 C 404.253906 625.183594 414.714844 627.964844 419.359375 628.996094 L 453.550781 634.960938 C 435.003906 638.308594 416.453125 641.804688 397.945312 645.410156 C 397.554688 645.484375 394.089844 646.457031 394.089844 646.457031 C 394.089844 646.457031 397.753906 647.910156 399.117188 648.3125 C 418.148438 653.925781 436.253906 660.21875 456.335938 662.210938 C 428.582031 669.363281 398.300781 674.734375 371.175781 662.40625 C 351.46875 653.445312 329.152344 629.242188 335.414062 605.933594 C 338.5625 594.214844 350.242188 586.90625 361.839844 592.328125 L 371.382812 598.484375 C 361.878906 581.78125 337.878906 584.34375 330.277344 601.722656 C 321.503906 621.792969 333.03125 645.886719 348.277344 659.449219 C 371.90625 680.472656 403.3125 683.558594 433.550781 679.140625 C 447.203125 677.144531 460.417969 672.90625 473.867188 670.066406 L 463.414062 675.757812 C 418.851562 695.515625 373.082031 699.230469 333.5 666.835938 C 315.636719 652.21875 295.238281 621.777344 292.882812 598.492188 C 292.402344 593.746094 292.882812 587.734375 292.882812 582.796875 C 292.882812 581.902344 292.253906 579.566406 291.964844 579.558594 C 285.699219 609.601562 299.734375 644.453125 320.109375 666.378906 C 350.152344 698.707031 387.992188 707.59375 431.601562 699.351562 C 436.707031 698.386719 443.402344 695.667969 445.25 695 C 460.371094 691.023438 474.898438 684.136719 488.863281 677.203125 C 491.90625 675.695312 497.53125 671.074219 500.550781 670.550781 C 505.980469 669.605469 519.699219 676.75 526.5 674.683594 L 499.800781 687.214844 C 481.832031 698.53125 468.976562 719.335938 472.957031 741.164062 L 487.75 719.488281 C 491.585938 715.136719 498.050781 705.59375 503.472656 701.042969 C 508.234375 697.050781 537.019531 685.277344 544.632812 682.183594 C 545.96875 681.636719 547.09375 680.847656 548.667969 681.148438 C 536.988281 692.726562 518.136719 700.480469 511.941406 716.902344 C 505.921875 732.847656 503.648438 753.410156 517.269531 766.09375 L 517.269531 752.703125 C 517.269531 748.371094 525.566406 718.996094 527.933594 715.347656 C 531.28125 710.191406 553.132812 696.722656 559.675781 691.683594 C 563.199219 688.96875 566.421875 685.171875 570.359375 682.976562 L 562.492188 694.503906 C 556.835938 701.527344 545.632812 710.988281 544.949219 720.402344 C 544.320312 729.082031 550.980469 738.714844 556.082031 745.289062 C 557.054688 746.542969 560.625 749.042969 559.742188 750.378906 C 552.441406 752.523438 538.824219 767.40625 539.683594 774.757812 C 540.398438 780.886719 554.519531 789.753906 560.675781 790.113281 C 559.375 792.097656 555.648438 795.476562 556.371094 797.929688 C 556.898438 799.726562 566.609375 802.28125 568.015625 802.613281 C 591.882812 808.285156 615.898438 791.574219 636.40625 783.191406 C 657.820312 774.445312 677.066406 770.589844 697.261719 757.242188 C 769.707031 709.359375 775.390625 606.765625 683.480469 579.105469 "/>
<path style=" stroke:none;fill-rule:nonzero;fill:rgb(22.399902%,54.899597%,21.199036%);fill-opacity:1;" d="M 249.125 585.320312 L 240.5 587.722656 L 244.59375 602.433594 L 233.222656 605.597656 L 229.128906 590.882812 L 209.800781 596.261719 L 206.351562 583.855469 L 257.042969 569.75 L 264.738281 597.40625 L 253.367188 600.570312 Z M 249.125 585.320312 "/>
<path style=" stroke:none;fill-rule:nonzero;fill:rgb(22.399902%,54.899597%,21.199036%);fill-opacity:1;" d="M 253.128906 635.339844 C 254.074219 632.847656 253.953125 630.296875 252.761719 627.6875 C 251.574219 625.097656 249.695312 623.375 247.113281 622.519531 C 244.617188 621.675781 242.066406 621.851562 239.453125 623.042969 C 236.949219 624.191406 235.214844 626.015625 234.246094 628.519531 C 233.277344 631.070312 233.367188 633.601562 234.511719 636.105469 C 235.695312 638.695312 237.550781 640.441406 240.074219 641.347656 C 242.589844 642.234375 245.15625 642.078125 247.765625 640.886719 C 250.394531 639.683594 252.183594 637.832031 253.128906 635.339844 M 229.800781 649.097656 L 233.6875 647.320312 L 233.628906 647.195312 C 231.488281 647.078125 229.484375 646.175781 227.617188 644.488281 C 226.011719 643.03125 224.710938 641.222656 223.722656 639.054688 C 221.25 633.644531 221.105469 628.40625 223.289062 623.335938 C 225.429688 618.441406 229.222656 614.746094 234.675781 612.253906 C 240.039062 609.800781 245.300781 609.394531 250.449219 611.03125 C 255.785156 612.742188 259.660156 616.234375 262.078125 621.519531 C 263.058594 623.664062 263.5625 625.824219 263.589844 628 C 263.628906 630.425781 263.039062 632.527344 261.816406 634.308594 L 261.875 634.433594 L 265.695312 632.6875 L 270.601562 643.421875 L 234.710938 659.832031 Z M 229.800781 649.097656 "/>
<path style=" stroke:none;fill-rule:nonzero;fill:rgb(22.399902%,54.899597%,21.199036%);fill-opacity:1;" d="M 279.542969 675.894531 C 277.792969 673.414062 276.195312 671.835938 274.75 671.15625 C 272.828125 670.261719 270.699219 670.585938 268.363281 672.128906 L 250.261719 684.089844 L 243.753906 674.242188 L 276.6875 652.488281 L 282.789062 661.726562 L 279.285156 664.042969 L 279.378906 664.1875 C 283.5 663.710938 286.859375 665.429688 289.445312 669.347656 Z M 279.542969 675.894531 "/>
<path style=" stroke:none;fill-rule:nonzero;fill:rgb(22.399902%,54.899597%,21.199036%);fill-opacity:1;" d="M 298.296875 740.007812 L 313.226562 725.289062 C 315.152344 723.386719 316.351562 721.75 316.820312 720.378906 C 317.472656 718.4375 316.9375 716.59375 315.214844 714.847656 C 313.507812 713.113281 311.714844 712.433594 309.828125 712.796875 C 308.273438 713.09375 306.597656 714.128906 304.800781 715.902344 L 289.449219 731.035156 L 281.164062 722.628906 L 296.441406 707.570312 C 298.1875 705.847656 299.277344 704.269531 299.714844 702.832031 C 300.285156 700.9375 299.773438 699.183594 298.179688 697.570312 C 296.425781 695.789062 294.542969 695.128906 292.527344 695.589844 C 290.9375 695.953125 289.1875 697.078125 287.273438 698.964844 L 272.34375 713.683594 L 264.058594 705.277344 L 292.164062 677.570312 L 299.886719 685.40625 L 296.898438 688.355469 L 297.019531 688.480469 C 299.132812 687.890625 301.21875 687.976562 303.277344 688.742188 C 305.136719 689.410156 306.910156 690.601562 308.601562 692.316406 C 312.144531 695.910156 313.132812 700.261719 311.574219 705.371094 C 317 704.183594 321.597656 705.5 325.367188 709.320312 C 328.402344 712.402344 329.886719 715.800781 329.8125 719.515625 C 329.757812 722.363281 328.96875 724.925781 327.449219 727.207031 C 326.804688 728.132812 325.96875 729.152344 324.949219 730.253906 C 324.550781 730.679688 324.066406 731.171875 323.488281 731.742188 L 306.582031 748.410156 Z M 298.296875 740.007812 "/>
<path style=" stroke:none;fill-rule:nonzero;fill:rgb(43.099976%,75.698853%,24.299622%);fill-opacity:1;" d="M 321.457031 758.832031 L 327.125 750.054688 C 329.195312 750.042969 330.933594 750.023438 332.332031 749.988281 C 334.179688 749.941406 335.875 749.855469 337.421875 749.726562 C 341.089844 749.421875 344.472656 748.851562 347.574219 748.015625 C 348.828125 747.695312 350.023438 747.339844 351.160156 746.945312 C 352.542969 746.464844 353.8125 745.945312 354.96875 745.398438 C 357.816406 744.015625 359.8125 742.4375 360.957031 740.667969 C 362.800781 737.8125 362.335938 735.484375 359.554688 733.691406 C 357.726562 732.511719 355.914062 732.398438 354.109375 733.355469 C 352.773438 734.0625 351.394531 735.402344 349.980469 737.382812 L 339.222656 730.433594 C 340.660156 728.332031 341.992188 726.699219 343.214844 725.53125 C 344.734375 724.03125 346.460938 722.851562 348.398438 721.980469 C 351.269531 720.695312 354.339844 720.269531 357.613281 720.703125 C 360.652344 721.121094 363.566406 722.234375 366.367188 724.042969 C 369.398438 726 371.707031 728.375 373.296875 731.160156 C 375.042969 734.21875 375.699219 737.425781 375.265625 740.78125 C 374.917969 742.980469 374.203125 744.917969 373.125 746.589844 C 371.65625 748.863281 369.742188 750.820312 367.382812 752.46875 C 365.308594 753.9375 362.847656 755.183594 360.007812 756.214844 C 357.664062 757.070312 354.953125 757.8125 351.875 758.441406 C 350.640625 758.6875 349.269531 758.933594 347.765625 759.175781 C 346.699219 759.367188 345.371094 759.570312 343.777344 759.78125 L 358.765625 769.460938 L 352.625 778.964844 Z M 321.457031 758.832031 "/>
<path style=" stroke:none;fill-rule:nonzero;fill:rgb(43.099976%,75.698853%,24.299622%);fill-opacity:1;" d="M 393.9375 797.628906 L 381.089844 792.457031 L 384.441406 737.085938 L 397.226562 742.230469 L 393.273438 780.410156 L 393.433594 780.476562 L 417.09375 750.226562 L 429.941406 755.394531 Z M 393.9375 797.628906 "/>
<path style=" stroke:none;fill-rule:nonzero;fill:rgb(43.099976%,75.698853%,24.299622%);fill-opacity:1;" d="M 450.785156 788.445312 C 450.773438 783.832031 448.324219 781.003906 443.433594 779.964844 C 438.542969 778.925781 435.15625 780.511719 433.265625 784.722656 Z M 460.40625 798.617188 L 431.480469 792.46875 C 431.167969 797.492188 433.664062 800.5625 438.960938 801.6875 C 441.722656 802.273438 444.320312 801.574219 446.75 799.582031 L 458.566406 802.09375 C 455.996094 805.734375 452.851562 808.402344 449.132812 810.09375 C 445.179688 811.882812 441.097656 812.328125 436.890625 811.433594 C 431.253906 810.234375 426.867188 807.210938 423.734375 802.355469 C 420.578125 797.523438 419.597656 792.285156 420.792969 786.648438 C 421.996094 780.992188 424.984375 776.550781 429.761719 773.332031 C 434.597656 770.054688 439.824219 769.011719 445.4375 770.207031 C 451.277344 771.445312 455.714844 774.542969 458.757812 779.496094 C 461.722656 784.359375 462.578125 789.730469 461.328125 795.617188 C 461.09375 796.726562 460.785156 797.726562 460.40625 798.617188 "/>
<path style=" stroke:none;fill-rule:nonzero;fill:rgb(43.099976%,75.698853%,24.299622%);fill-opacity:1;" d="M 488.070312 786.042969 L 486.089844 816.492188 L 474.3125 815.726562 L 476.292969 785.277344 L 470.472656 784.898438 L 471.054688 775.964844 L 476.875 776.34375 L 477.730469 763.214844 L 489.507812 763.980469 L 488.652344 777.109375 L 494.332031 777.480469 L 493.753906 786.414062 Z M 488.070312 786.042969 "/>
</g>
</svg>